<svg width="268" height="43" viewBox="0 0 268 43" fill="none" xmlns="http://www.w3.org/2000/svg">
<mask id="path-1-outside-1_1_9" maskUnits="userSpaceOnUse" x="-0.5" y="-0.5" width="268" height="44" fill="black">
<rect fill="white" x="-0.5" y="-0.5" width="268" height="44"/>
<path d="M16.762 41.58C16.6053 40.9847 16.4957 40.3267 16.433 39.606C16.4017 38.8853 16.386 38.008 16.386 36.974H16.151V25.553C16.151 24.0177 15.7593 22.874 14.976 22.122C14.224 21.3387 13.0177 20.947 11.357 20.947C9.759 20.947 8.47433 21.2603 7.503 21.887C6.563 22.5137 6.01467 23.4067 5.858 24.566H1.205C1.42433 22.31 2.44267 20.5083 4.26 19.161C6.07733 17.8137 8.50567 17.14 11.545 17.14C14.6783 17.14 17.0283 17.8763 18.595 19.349C20.1617 20.7903 20.945 22.921 20.945 25.741V36.974C20.945 37.6947 20.992 38.431 21.086 39.183C21.18 39.935 21.321 40.734 21.509 41.58H16.762ZM8.49 42.05C6.046 42.05 4.10333 41.4547 2.662 40.264C1.22067 39.042 0.5 37.397 0.5 35.329C0.5 33.1983 1.252 31.522 2.756 30.3C4.29133 29.0467 6.48467 28.2007 9.336 27.762L17.232 26.493V29.924L10.088 31.052C8.49 31.3027 7.28367 31.7257 6.469 32.321C5.68567 32.9163 5.294 33.778 5.294 34.906C5.294 36.0027 5.65433 36.833 6.375 37.397C7.127 37.9297 8.208 38.196 9.618 38.196C11.498 38.196 13.049 37.7417 14.271 36.833C15.5243 35.9243 16.151 34.7807 16.151 33.402L16.762 36.88C16.198 38.5407 15.1953 39.8253 13.754 40.734C12.3127 41.6113 10.558 42.05 8.49 42.05Z"/>
<path d="M24.7472 41.58V17.61H29.4002V23.25H29.6352V41.58H24.7472ZM41.7612 41.58V26.164C41.7612 24.5033 41.3382 23.2657 40.4922 22.451C39.6776 21.6363 38.4556 21.229 36.8262 21.229C35.4162 21.229 34.1629 21.5423 33.0662 22.169C32.0009 22.7957 31.1549 23.6573 30.5282 24.754C29.9329 25.8507 29.6352 27.151 29.6352 28.655L29.0242 22.921C29.8076 21.135 31.0139 19.725 32.6432 18.691C34.2726 17.657 36.1682 17.14 38.3302 17.14C40.8996 17.14 42.9206 17.8607 44.3932 19.302C45.8659 20.7433 46.6022 22.6547 46.6022 25.036V41.58H41.7612Z"/>
<path d="M59.8489 42.05C57.0602 42.05 55.0079 41.4077 53.6919 40.123C52.4072 38.807 51.7649 36.88 51.7649 34.342V12.111L56.6059 10.278V34.389C56.6059 35.6423 56.9349 36.5667 57.5929 37.162C58.2509 37.7573 59.3162 38.055 60.7889 38.055C61.3529 38.055 61.8542 38.008 62.2929 37.914C62.7316 37.82 63.1075 37.7103 63.4209 37.585V41.533C63.0762 41.6897 62.5905 41.815 61.9639 41.909C61.3372 42.003 60.6322 42.05 59.8489 42.05ZM46.9709 21.511V17.61H63.4209V21.511H46.9709Z"/>
<path d="M75.0266 42.05C72.5826 42.05 70.4362 41.5173 68.5876 40.452C66.7389 39.3553 65.2976 37.867 64.2636 35.987C63.2296 34.0757 62.7126 31.9137 62.7126 29.501C62.7126 27.057 63.2296 24.9107 64.2636 23.062C65.3289 21.2133 66.7702 19.772 68.5876 18.738C70.4362 17.6727 72.5826 17.14 75.0266 17.14C77.5019 17.14 79.6639 17.6727 81.5126 18.738C83.3612 19.772 84.7869 21.2133 85.7896 23.062C86.8236 24.9107 87.3406 27.057 87.3406 29.501C87.3406 31.9137 86.8236 34.0757 85.7896 35.987C84.7869 37.867 83.3612 39.3553 81.5126 40.452C79.6639 41.5173 77.5019 42.05 75.0266 42.05ZM75.0266 38.055C76.4992 38.055 77.7682 37.6947 78.8336 36.974C79.9302 36.2533 80.7919 35.2507 81.4186 33.966C82.0452 32.6813 82.3586 31.1773 82.3586 29.454C82.3586 26.8847 81.6692 24.8637 80.2906 23.391C78.9432 21.887 77.1886 21.135 75.0266 21.135C72.8959 21.135 71.1412 21.887 69.7626 23.391C68.4152 24.895 67.7416 26.916 67.7416 29.454C67.7416 31.1773 68.0392 32.6813 68.6346 33.966C69.2612 35.2507 70.1229 36.2533 71.2196 36.974C72.3476 37.6947 73.6166 38.055 75.0266 38.055Z"/>
<path d="M89.5411 41.58V17.61H94.1941V23.25H94.4291V41.58H89.5411ZM106.555 41.58V26.164C106.555 24.5033 106.132 23.2657 105.286 22.451C104.471 21.6363 103.249 21.229 101.62 21.229C100.21 21.229 98.9568 21.5423 97.8601 22.169C96.7948 22.7957 95.9488 23.6573 95.3221 24.754C94.7268 25.8507 94.4291 27.151 94.4291 28.655L93.8181 22.921C94.6015 21.135 95.8078 19.725 97.4371 18.691C99.0665 17.657 100.962 17.14 103.124 17.14C105.693 17.14 107.714 17.8607 109.187 19.302C110.66 20.7433 111.396 22.6547 111.396 25.036V41.58H106.555Z"/>
<path d="M115.132 41.58V17.61H120.02V41.58H115.132ZM114.897 12.91V7.411H120.302V12.91H114.897Z"/>
<path d="M250.105 10.58V2.152H246.815V0.5H255.551V2.152H252.261V10.58H250.105Z"/>
<path d="M255.745 10.58V0.5H259.105L261.905 10.216H260.687L263.487 0.5H266.861V10.58H264.733V1.102H265.097L262.367 10.58H260.141L257.439 1.186H257.789V10.58H255.745Z"/>
<path d="M127.479 42.003C127.072 42.003 126.868 41.768 126.868 41.298C126.868 40.7027 127.119 40.123 127.62 39.559C128.153 38.9637 128.826 38.431 129.641 37.961L141.156 22.733C141.313 22.4823 141.344 22.3257 141.25 22.263C141.187 22.169 141.046 22.169 140.827 22.263C140.451 22.4197 140.012 22.498 139.511 22.498C138.696 22.498 137.913 22.3413 137.161 22.028C136.44 21.6833 135.767 21.3543 135.14 21.041C134.513 20.7277 133.902 20.571 133.307 20.571C132.398 20.571 131.725 21.0097 131.286 21.887C130.847 22.733 130.628 24.096 130.628 25.976C130.628 26.3833 130.44 26.587 130.064 26.587C129.688 26.587 129.5 26.305 129.5 25.741C129.5 23.579 129.751 21.887 130.252 20.665C130.785 19.443 131.443 18.5813 132.226 18.08C133.009 17.5787 133.808 17.328 134.623 17.328C135.532 17.328 136.284 17.5003 136.879 17.845C137.474 18.1897 138.007 18.597 138.477 19.067C138.947 19.5057 139.448 19.8973 139.981 20.242C140.514 20.5867 141.203 20.759 142.049 20.759C142.425 20.759 142.676 20.571 142.801 20.195C143.146 19.4743 143.584 18.8163 144.117 18.221C144.65 17.6257 145.151 17.328 145.621 17.328C146.122 17.328 146.373 17.5787 146.373 18.08C146.373 18.5187 146.201 18.9103 145.856 19.255C145.543 19.5997 145.088 20.0227 144.493 20.524C143.929 21.0253 143.287 21.7617 142.566 22.733L131.897 36.927C131.772 37.0837 131.756 37.2247 131.85 37.35C131.944 37.444 132.101 37.444 132.32 37.35C132.696 37.1933 133.119 37.115 133.589 37.115C134.278 37.115 134.999 37.256 135.751 37.538C136.503 37.7887 137.239 38.055 137.96 38.337C138.712 38.619 139.37 38.76 139.934 38.76C140.843 38.76 141.516 38.3527 141.955 37.538C142.394 36.692 142.613 35.329 142.613 33.449C142.613 33.0417 142.801 32.838 143.177 32.838C143.553 32.838 143.741 33.12 143.741 33.684C143.741 35.7833 143.475 37.444 142.942 38.666C142.441 39.888 141.798 40.7497 141.015 41.251C140.232 41.7523 139.433 42.003 138.618 42.003C137.772 42.003 137.036 41.8463 136.409 41.533C135.782 41.1883 135.203 40.8123 134.67 40.405C134.169 39.9977 133.683 39.6373 133.213 39.324C132.743 39.0107 132.226 38.854 131.662 38.854C130.941 38.854 130.44 39.1047 130.158 39.606C129.845 40.264 129.422 40.828 128.889 41.298C128.388 41.768 127.918 42.003 127.479 42.003ZM140.874 13.145C140.279 13.145 139.777 12.9413 139.37 12.534C138.994 12.0953 138.806 11.5783 138.806 10.983C138.806 10.137 139.057 9.46333 139.558 8.962C140.091 8.46067 140.686 8.21 141.344 8.21C141.971 8.21 142.488 8.41367 142.895 8.821C143.334 9.197 143.553 9.69833 143.553 10.325C143.553 11.2023 143.287 11.8917 142.754 12.393C142.221 12.8943 141.595 13.145 140.874 13.145Z"/>
<path d="M148.336 42.003C147.208 42.003 146.331 41.5173 145.704 40.546C145.077 39.5747 144.764 38.149 144.764 36.269C144.764 34.483 145.015 32.697 145.516 30.911C146.017 29.0937 146.707 27.3703 147.584 25.741C148.461 24.1117 149.448 22.6703 150.545 21.417C151.673 20.1637 152.848 19.1767 154.07 18.456C155.323 17.704 156.561 17.328 157.783 17.328C158.378 17.328 158.942 17.4533 159.475 17.704C160.008 17.9233 160.446 18.2837 160.791 18.785C160.979 19.067 161.167 19.208 161.355 19.208C161.543 19.208 161.731 19.067 161.919 18.785C162.264 18.2837 162.546 17.9703 162.765 17.845C162.984 17.6883 163.188 17.61 163.376 17.61C163.783 17.61 163.94 17.8293 163.846 18.268L159.663 36.269C159.193 38.3057 159.506 39.324 160.603 39.324C161.324 39.324 161.966 38.8383 162.53 37.867C163.125 36.8957 163.721 35.3917 164.316 33.355C164.41 33.0103 164.614 32.838 164.927 32.838C165.146 32.838 165.287 32.932 165.35 33.12C165.413 33.308 165.413 33.5273 165.35 33.778C164.755 36.7233 163.956 38.8383 162.953 40.123C161.95 41.3763 160.744 42.003 159.334 42.003C158.112 42.003 157.235 41.486 156.702 40.452C156.201 39.418 156.154 38.008 156.561 36.222L157.172 33.637C157.235 33.4177 157.188 33.2923 157.031 33.261C156.906 33.2297 156.796 33.308 156.702 33.496C154.979 36.6607 153.443 38.8697 152.096 40.123C150.78 41.3763 149.527 42.003 148.336 42.003ZM149.511 39.606C150.263 39.606 151.093 39.1517 152.002 38.243C152.911 37.3343 153.804 36.1593 154.681 34.718C155.59 33.2767 156.42 31.7257 157.172 30.065C157.924 28.4043 158.519 26.8063 158.958 25.271C159.428 23.7357 159.663 22.4353 159.663 21.37C159.663 19.4587 158.989 18.503 157.642 18.503C156.827 18.503 155.966 18.879 155.057 19.631C154.148 20.3517 153.271 21.3387 152.425 22.592C151.61 23.8453 150.858 25.271 150.169 26.869C149.511 28.4357 148.978 30.0807 148.571 31.804C148.164 33.496 147.96 35.1567 147.96 36.786C147.96 37.8827 148.085 38.6347 148.336 39.042C148.618 39.418 149.01 39.606 149.511 39.606Z"/>
<path d="M171.396 42.003C170.33 42.003 169.375 41.721 168.529 41.157C167.714 40.5617 167.134 39.6843 166.79 38.525C166.476 37.3343 166.523 35.8617 166.931 34.107L172.195 11.5C172.351 10.936 172.351 10.5443 172.195 10.325C172.069 10.1057 171.787 9.98033 171.349 9.949L169.939 9.808C169.469 9.77666 169.265 9.573 169.328 9.197C169.39 8.915 169.61 8.74267 169.986 8.68C171.114 8.492 172.116 8.27267 172.994 8.022C173.871 7.74 174.576 7.37966 175.109 6.941C175.359 6.753 175.594 6.659 175.814 6.659C176.19 6.659 176.331 6.894 176.237 7.364L171.96 25.835C171.928 26.0543 171.975 26.1797 172.101 26.211C172.226 26.2423 172.336 26.164 172.43 25.976C174.153 22.686 175.688 20.43 177.036 19.208C178.414 17.9547 179.699 17.328 180.89 17.328C182.049 17.328 182.958 17.8137 183.616 18.785C184.305 19.7563 184.65 21.182 184.65 23.062C184.65 24.848 184.383 26.6497 183.851 28.467C183.349 30.253 182.644 31.9607 181.736 33.59C180.858 35.2193 179.84 36.6607 178.681 37.914C177.553 39.1673 176.362 40.17 175.109 40.922C173.855 41.6427 172.618 42.003 171.396 42.003ZM171.537 40.828C172.351 40.828 173.213 40.4677 174.122 39.747C175.03 38.995 175.908 38.008 176.754 36.786C177.631 35.5327 178.414 34.1383 179.104 32.603C179.793 31.0363 180.341 29.4383 180.749 27.809C181.156 26.1483 181.36 24.5503 181.36 23.015C181.36 21.8243 181.234 20.994 180.984 20.524C180.733 20.0227 180.294 19.772 179.668 19.772C178.978 19.772 178.195 20.195 177.318 21.041C176.44 21.887 175.547 23.015 174.639 24.425C173.73 25.8037 172.884 27.3077 172.101 28.937C171.317 30.5663 170.691 32.18 170.221 33.778C169.751 35.3447 169.516 36.739 169.516 37.961C169.516 39.8723 170.189 40.828 171.537 40.828Z"/>
<path d="M193.423 13.145C192.828 13.145 192.326 12.9413 191.919 12.534C191.543 12.0953 191.355 11.5783 191.355 10.983C191.355 10.137 191.606 9.46333 192.107 8.962C192.64 8.46067 193.235 8.21 193.893 8.21C194.52 8.21 195.037 8.41367 195.444 8.821C195.883 9.197 196.102 9.69833 196.102 10.325C196.102 11.2023 195.836 11.8917 195.303 12.393C194.77 12.8943 194.144 13.145 193.423 13.145ZM189.569 42.05C188.535 42.05 187.799 41.674 187.36 40.922C186.921 40.1387 186.906 38.8697 187.313 37.115L190.791 22.216C190.948 21.5267 190.963 20.994 190.838 20.618C190.744 20.2107 190.462 20.007 189.992 20.007C189.428 20.007 188.801 20.43 188.112 21.276C187.454 22.0907 186.702 23.6573 185.856 25.976C185.731 26.3833 185.511 26.587 185.198 26.587C184.728 26.587 184.603 26.305 184.822 25.741C185.511 23.579 186.232 21.887 186.984 20.665C187.767 19.443 188.551 18.5813 189.334 18.08C190.117 17.5787 190.838 17.328 191.496 17.328C192.593 17.328 193.36 17.7197 193.799 18.503C194.238 19.255 194.253 20.5083 193.846 22.263L190.368 37.162C190.211 37.8513 190.18 38.3997 190.274 38.807C190.399 39.183 190.697 39.371 191.167 39.371C191.731 39.371 192.342 38.9637 193 38.149C193.689 37.303 194.457 35.7207 195.303 33.402C195.428 32.9947 195.648 32.791 195.961 32.791C196.431 32.791 196.556 33.073 196.337 33.637C195.679 35.7677 194.943 37.4597 194.128 38.713C193.345 39.935 192.561 40.7967 191.778 41.298C190.995 41.7993 190.258 42.05 189.569 42.05Z"/>
<path d="M202.639 42.003C200.916 42.003 199.49 41.298 198.362 39.888C197.234 38.4467 196.67 36.6137 196.67 34.389C196.67 32.2897 196.999 30.2373 197.657 28.232C198.346 26.1953 199.255 24.3623 200.383 22.733C201.542 21.0723 202.811 19.7563 204.19 18.785C205.6 17.8137 207.01 17.328 208.42 17.328C209.924 17.328 211.193 17.7353 212.227 18.55C212.384 18.6753 212.478 18.785 212.509 18.879C212.54 18.9417 212.525 19.0983 212.462 19.349L211.193 25.506C211.099 25.9447 210.895 26.164 210.582 26.164C210.237 26.164 210.034 25.929 209.971 25.459L209.736 22.122C209.642 20.6807 209.423 19.7407 209.078 19.302C208.765 18.8633 208.295 18.644 207.668 18.644C206.791 18.644 205.898 19.0827 204.989 19.96C204.08 20.806 203.234 21.9653 202.451 23.438C201.699 24.8793 201.088 26.493 200.618 28.279C200.179 30.0337 199.96 31.8197 199.96 33.637C199.96 37.585 201.245 39.559 203.814 39.559C205.036 39.559 206.133 38.995 207.104 37.867C208.107 36.739 209.031 34.9843 209.877 32.603C209.971 32.2897 210.19 32.133 210.535 32.133C210.723 32.133 210.833 32.2113 210.864 32.368C210.895 32.4933 210.864 32.7597 210.77 33.167C210.457 34.8903 209.893 36.41 209.078 37.726C208.263 39.042 207.292 40.0917 206.164 40.875C205.067 41.627 203.892 42.003 202.639 42.003Z"/>
<path d="M225.979 42.003C224.381 42.003 223.08 40.7027 222.078 38.102L219.493 31.287C219.179 30.535 218.788 30.159 218.318 30.159C217.848 30.159 217.44 30.5507 217.096 31.334C216.782 32.0233 216.438 32.9633 216.062 34.154C215.717 35.3133 215.388 36.5823 215.075 37.961L214.37 41.063C214.276 41.4077 214.056 41.58 213.712 41.58H211.879C211.44 41.58 211.268 41.3763 211.362 40.969L218.224 11.5C218.349 10.9673 218.349 10.5913 218.224 10.372C218.098 10.1213 217.816 9.98033 217.378 9.949L215.968 9.808C215.498 9.74533 215.294 9.54167 215.357 9.197C215.419 8.915 215.639 8.74267 216.015 8.68C217.362 8.46067 218.443 8.21 219.258 7.928C220.072 7.646 220.699 7.317 221.138 6.941C221.388 6.753 221.608 6.659 221.796 6.659C222.203 6.659 222.36 6.894 222.266 7.364L217.895 25.976C217.863 26.1953 217.91 26.3207 218.036 26.352C218.161 26.3833 218.271 26.305 218.365 26.117L219.916 23.344C222.172 19.3333 224.71 17.328 227.53 17.328C228.595 17.328 229.441 17.61 230.068 18.174C230.694 18.738 231.008 19.5057 231.008 20.477C231.008 22.0123 230.256 23.5477 228.752 25.083C227.279 26.6183 225.336 27.8717 222.924 28.843C222.172 29.125 221.952 29.6263 222.266 30.347L224.992 37.303C225.305 38.0863 225.618 38.6503 225.932 38.995C226.245 39.3083 226.637 39.465 227.107 39.465C227.827 39.465 228.376 39.0263 228.752 38.149C229.128 37.2403 229.457 35.6737 229.739 33.449C229.801 33.0417 229.989 32.838 230.303 32.838C230.647 32.838 230.804 33.1513 230.773 33.778C230.616 36.41 230.115 38.4467 229.269 39.888C228.454 41.298 227.357 42.003 225.979 42.003ZM218.788 28.044C218.662 28.326 218.647 28.5453 218.741 28.702C218.866 28.8273 219.07 28.8587 219.352 28.796C221.952 28.138 224.052 27.057 225.65 25.553C227.248 24.049 228.047 22.3883 228.047 20.571C228.047 19.3803 227.592 18.785 226.684 18.785C225.618 18.785 224.381 19.6153 222.971 21.276C221.561 22.9053 220.166 25.1613 218.788 28.044Z"/>
<path d="M240.232 13.145C239.637 13.145 239.135 12.9413 238.728 12.534C238.352 12.0953 238.164 11.5783 238.164 10.983C238.164 10.137 238.415 9.46333 238.916 8.962C239.449 8.46067 240.044 8.21 240.702 8.21C241.329 8.21 241.846 8.41367 242.253 8.821C242.692 9.197 242.911 9.69833 242.911 10.325C242.911 11.2023 242.645 11.8917 242.112 12.393C241.579 12.8943 240.953 13.145 240.232 13.145ZM236.378 42.05C235.344 42.05 234.608 41.674 234.169 40.922C233.73 40.1387 233.715 38.8697 234.122 37.115L237.6 22.216C237.757 21.5267 237.772 20.994 237.647 20.618C237.553 20.2107 237.271 20.007 236.801 20.007C236.237 20.007 235.61 20.43 234.921 21.276C234.263 22.0907 233.511 23.6573 232.665 25.976C232.54 26.3833 232.32 26.587 232.007 26.587C231.537 26.587 231.412 26.305 231.631 25.741C232.32 23.579 233.041 21.887 233.793 20.665C234.576 19.443 235.36 18.5813 236.143 18.08C236.926 17.5787 237.647 17.328 238.305 17.328C239.402 17.328 240.169 17.7197 240.608 18.503C241.047 19.255 241.062 20.5083 240.655 22.263L237.177 37.162C237.02 37.8513 236.989 38.3997 237.083 38.807C237.208 39.183 237.506 39.371 237.976 39.371C238.54 39.371 239.151 38.9637 239.809 38.149C240.498 37.303 241.266 35.7207 242.112 33.402C242.237 32.9947 242.457 32.791 242.77 32.791C243.24 32.791 243.365 33.073 243.146 33.637C242.488 35.7677 241.752 37.4597 240.937 38.713C240.154 39.935 239.37 40.7967 238.587 41.298C237.804 41.7993 237.067 42.05 236.378 42.05Z"/>
</mask>
<path d="M16.762 41.58C16.6053 40.9847 16.4957 40.3267 16.433 39.606C16.4017 38.8853 16.386 38.008 16.386 36.974H16.151V25.553C16.151 24.0177 15.7593 22.874 14.976 22.122C14.224 21.3387 13.0177 20.947 11.357 20.947C9.759 20.947 8.47433 21.2603 7.503 21.887C6.563 22.5137 6.01467 23.4067 5.858 24.566H1.205C1.42433 22.31 2.44267 20.5083 4.26 19.161C6.07733 17.8137 8.50567 17.14 11.545 17.14C14.6783 17.14 17.0283 17.8763 18.595 19.349C20.1617 20.7903 20.945 22.921 20.945 25.741V36.974C20.945 37.6947 20.992 38.431 21.086 39.183C21.18 39.935 21.321 40.734 21.509 41.58H16.762ZM8.49 42.05C6.046 42.05 4.10333 41.4547 2.662 40.264C1.22067 39.042 0.5 37.397 0.5 35.329C0.5 33.1983 1.252 31.522 2.756 30.3C4.29133 29.0467 6.48467 28.2007 9.336 27.762L17.232 26.493V29.924L10.088 31.052C8.49 31.3027 7.28367 31.7257 6.469 32.321C5.68567 32.9163 5.294 33.778 5.294 34.906C5.294 36.0027 5.65433 36.833 6.375 37.397C7.127 37.9297 8.208 38.196 9.618 38.196C11.498 38.196 13.049 37.7417 14.271 36.833C15.5243 35.9243 16.151 34.7807 16.151 33.402L16.762 36.88C16.198 38.5407 15.1953 39.8253 13.754 40.734C12.3127 41.6113 10.558 42.05 8.49 42.05Z" fill="black"/>
<path d="M24.7472 41.58V17.61H29.4002V23.25H29.6352V41.58H24.7472ZM41.7612 41.58V26.164C41.7612 24.5033 41.3382 23.2657 40.4922 22.451C39.6776 21.6363 38.4556 21.229 36.8262 21.229C35.4162 21.229 34.1629 21.5423 33.0662 22.169C32.0009 22.7957 31.1549 23.6573 30.5282 24.754C29.9329 25.8507 29.6352 27.151 29.6352 28.655L29.0242 22.921C29.8076 21.135 31.0139 19.725 32.6432 18.691C34.2726 17.657 36.1682 17.14 38.3302 17.14C40.8996 17.14 42.9206 17.8607 44.3932 19.302C45.8659 20.7433 46.6022 22.6547 46.6022 25.036V41.58H41.7612Z" fill="black"/>
<path d="M59.8489 42.05C57.0602 42.05 55.0079 41.4077 53.6919 40.123C52.4072 38.807 51.7649 36.88 51.7649 34.342V12.111L56.6059 10.278V34.389C56.6059 35.6423 56.9349 36.5667 57.5929 37.162C58.2509 37.7573 59.3162 38.055 60.7889 38.055C61.3529 38.055 61.8542 38.008 62.2929 37.914C62.7316 37.82 63.1075 37.7103 63.4209 37.585V41.533C63.0762 41.6897 62.5905 41.815 61.9639 41.909C61.3372 42.003 60.6322 42.05 59.8489 42.05ZM46.9709 21.511V17.61H63.4209V21.511H46.9709Z" fill="black"/>
<path d="M75.0266 42.05C72.5826 42.05 70.4362 41.5173 68.5876 40.452C66.7389 39.3553 65.2976 37.867 64.2636 35.987C63.2296 34.0757 62.7126 31.9137 62.7126 29.501C62.7126 27.057 63.2296 24.9107 64.2636 23.062C65.3289 21.2133 66.7702 19.772 68.5876 18.738C70.4362 17.6727 72.5826 17.14 75.0266 17.14C77.5019 17.14 79.6639 17.6727 81.5126 18.738C83.3612 19.772 84.7869 21.2133 85.7896 23.062C86.8236 24.9107 87.3406 27.057 87.3406 29.501C87.3406 31.9137 86.8236 34.0757 85.7896 35.987C84.7869 37.867 83.3612 39.3553 81.5126 40.452C79.6639 41.5173 77.5019 42.05 75.0266 42.05ZM75.0266 38.055C76.4992 38.055 77.7682 37.6947 78.8336 36.974C79.9302 36.2533 80.7919 35.2507 81.4186 33.966C82.0452 32.6813 82.3586 31.1773 82.3586 29.454C82.3586 26.8847 81.6692 24.8637 80.2906 23.391C78.9432 21.887 77.1886 21.135 75.0266 21.135C72.8959 21.135 71.1412 21.887 69.7626 23.391C68.4152 24.895 67.7416 26.916 67.7416 29.454C67.7416 31.1773 68.0392 32.6813 68.6346 33.966C69.2612 35.2507 70.1229 36.2533 71.2196 36.974C72.3476 37.6947 73.6166 38.055 75.0266 38.055Z" fill="black"/>
<path d="M89.5411 41.58V17.61H94.1941V23.25H94.4291V41.58H89.5411ZM106.555 41.58V26.164C106.555 24.5033 106.132 23.2657 105.286 22.451C104.471 21.6363 103.249 21.229 101.62 21.229C100.21 21.229 98.9568 21.5423 97.8601 22.169C96.7948 22.7957 95.9488 23.6573 95.3221 24.754C94.7268 25.8507 94.4291 27.151 94.4291 28.655L93.8181 22.921C94.6015 21.135 95.8078 19.725 97.4371 18.691C99.0665 17.657 100.962 17.14 103.124 17.14C105.693 17.14 107.714 17.8607 109.187 19.302C110.66 20.7433 111.396 22.6547 111.396 25.036V41.58H106.555Z" fill="black"/>
<path d="M115.132 41.58V17.61H120.02V41.58H115.132ZM114.897 12.91V7.411H120.302V12.91H114.897Z" fill="black"/>
<path d="M250.105 10.58V2.152H246.815V0.5H255.551V2.152H252.261V10.58H250.105Z" fill="black"/>
<path d="M255.745 10.58V0.5H259.105L261.905 10.216H260.687L263.487 0.5H266.861V10.58H264.733V1.102H265.097L262.367 10.58H260.141L257.439 1.186H257.789V10.58H255.745Z" fill="black"/>
<path d="M127.479 42.003C127.072 42.003 126.868 41.768 126.868 41.298C126.868 40.7027 127.119 40.123 127.62 39.559C128.153 38.9637 128.826 38.431 129.641 37.961L141.156 22.733C141.313 22.4823 141.344 22.3257 141.25 22.263C141.187 22.169 141.046 22.169 140.827 22.263C140.451 22.4197 140.012 22.498 139.511 22.498C138.696 22.498 137.913 22.3413 137.161 22.028C136.44 21.6833 135.767 21.3543 135.14 21.041C134.513 20.7277 133.902 20.571 133.307 20.571C132.398 20.571 131.725 21.0097 131.286 21.887C130.847 22.733 130.628 24.096 130.628 25.976C130.628 26.3833 130.44 26.587 130.064 26.587C129.688 26.587 129.5 26.305 129.5 25.741C129.5 23.579 129.751 21.887 130.252 20.665C130.785 19.443 131.443 18.5813 132.226 18.08C133.009 17.5787 133.808 17.328 134.623 17.328C135.532 17.328 136.284 17.5003 136.879 17.845C137.474 18.1897 138.007 18.597 138.477 19.067C138.947 19.5057 139.448 19.8973 139.981 20.242C140.514 20.5867 141.203 20.759 142.049 20.759C142.425 20.759 142.676 20.571 142.801 20.195C143.146 19.4743 143.584 18.8163 144.117 18.221C144.65 17.6257 145.151 17.328 145.621 17.328C146.122 17.328 146.373 17.5787 146.373 18.08C146.373 18.5187 146.201 18.9103 145.856 19.255C145.543 19.5997 145.088 20.0227 144.493 20.524C143.929 21.0253 143.287 21.7617 142.566 22.733L131.897 36.927C131.772 37.0837 131.756 37.2247 131.85 37.35C131.944 37.444 132.101 37.444 132.32 37.35C132.696 37.1933 133.119 37.115 133.589 37.115C134.278 37.115 134.999 37.256 135.751 37.538C136.503 37.7887 137.239 38.055 137.96 38.337C138.712 38.619 139.37 38.76 139.934 38.76C140.843 38.76 141.516 38.3527 141.955 37.538C142.394 36.692 142.613 35.329 142.613 33.449C142.613 33.0417 142.801 32.838 143.177 32.838C143.553 32.838 143.741 33.12 143.741 33.684C143.741 35.7833 143.475 37.444 142.942 38.666C142.441 39.888 141.798 40.7497 141.015 41.251C140.232 41.7523 139.433 42.003 138.618 42.003C137.772 42.003 137.036 41.8463 136.409 41.533C135.782 41.1883 135.203 40.8123 134.67 40.405C134.169 39.9977 133.683 39.6373 133.213 39.324C132.743 39.0107 132.226 38.854 131.662 38.854C130.941 38.854 130.44 39.1047 130.158 39.606C129.845 40.264 129.422 40.828 128.889 41.298C128.388 41.768 127.918 42.003 127.479 42.003ZM140.874 13.145C140.279 13.145 139.777 12.9413 139.37 12.534C138.994 12.0953 138.806 11.5783 138.806 10.983C138.806 10.137 139.057 9.46333 139.558 8.962C140.091 8.46067 140.686 8.21 141.344 8.21C141.971 8.21 142.488 8.41367 142.895 8.821C143.334 9.197 143.553 9.69833 143.553 10.325C143.553 11.2023 143.287 11.8917 142.754 12.393C142.221 12.8943 141.595 13.145 140.874 13.145Z" fill="black"/>
<path d="M148.336 42.003C147.208 42.003 146.331 41.5173 145.704 40.546C145.077 39.5747 144.764 38.149 144.764 36.269C144.764 34.483 145.015 32.697 145.516 30.911C146.017 29.0937 146.707 27.3703 147.584 25.741C148.461 24.1117 149.448 22.6703 150.545 21.417C151.673 20.1637 152.848 19.1767 154.07 18.456C155.323 17.704 156.561 17.328 157.783 17.328C158.378 17.328 158.942 17.4533 159.475 17.704C160.008 17.9233 160.446 18.2837 160.791 18.785C160.979 19.067 161.167 19.208 161.355 19.208C161.543 19.208 161.731 19.067 161.919 18.785C162.264 18.2837 162.546 17.9703 162.765 17.845C162.984 17.6883 163.188 17.61 163.376 17.61C163.783 17.61 163.94 17.8293 163.846 18.268L159.663 36.269C159.193 38.3057 159.506 39.324 160.603 39.324C161.324 39.324 161.966 38.8383 162.53 37.867C163.125 36.8957 163.721 35.3917 164.316 33.355C164.41 33.0103 164.614 32.838 164.927 32.838C165.146 32.838 165.287 32.932 165.35 33.12C165.413 33.308 165.413 33.5273 165.35 33.778C164.755 36.7233 163.956 38.8383 162.953 40.123C161.95 41.3763 160.744 42.003 159.334 42.003C158.112 42.003 157.235 41.486 156.702 40.452C156.201 39.418 156.154 38.008 156.561 36.222L157.172 33.637C157.235 33.4177 157.188 33.2923 157.031 33.261C156.906 33.2297 156.796 33.308 156.702 33.496C154.979 36.6607 153.443 38.8697 152.096 40.123C150.78 41.3763 149.527 42.003 148.336 42.003ZM149.511 39.606C150.263 39.606 151.093 39.1517 152.002 38.243C152.911 37.3343 153.804 36.1593 154.681 34.718C155.59 33.2767 156.42 31.7257 157.172 30.065C157.924 28.4043 158.519 26.8063 158.958 25.271C159.428 23.7357 159.663 22.4353 159.663 21.37C159.663 19.4587 158.989 18.503 157.642 18.503C156.827 18.503 155.966 18.879 155.057 19.631C154.148 20.3517 153.271 21.3387 152.425 22.592C151.61 23.8453 150.858 25.271 150.169 26.869C149.511 28.4357 148.978 30.0807 148.571 31.804C148.164 33.496 147.96 35.1567 147.96 36.786C147.96 37.8827 148.085 38.6347 148.336 39.042C148.618 39.418 149.01 39.606 149.511 39.606Z" fill="black"/>
<path d="M171.396 42.003C170.33 42.003 169.375 41.721 168.529 41.157C167.714 40.5617 167.134 39.6843 166.79 38.525C166.476 37.3343 166.523 35.8617 166.931 34.107L172.195 11.5C172.351 10.936 172.351 10.5443 172.195 10.325C172.069 10.1057 171.787 9.98033 171.349 9.949L169.939 9.808C169.469 9.77666 169.265 9.573 169.328 9.197C169.39 8.915 169.61 8.74267 169.986 8.68C171.114 8.492 172.116 8.27267 172.994 8.022C173.871 7.74 174.576 7.37966 175.109 6.941C175.359 6.753 175.594 6.659 175.814 6.659C176.19 6.659 176.331 6.894 176.237 7.364L171.96 25.835C171.928 26.0543 171.975 26.1797 172.101 26.211C172.226 26.2423 172.336 26.164 172.43 25.976C174.153 22.686 175.688 20.43 177.036 19.208C178.414 17.9547 179.699 17.328 180.89 17.328C182.049 17.328 182.958 17.8137 183.616 18.785C184.305 19.7563 184.65 21.182 184.65 23.062C184.65 24.848 184.383 26.6497 183.851 28.467C183.349 30.253 182.644 31.9607 181.736 33.59C180.858 35.2193 179.84 36.6607 178.681 37.914C177.553 39.1673 176.362 40.17 175.109 40.922C173.855 41.6427 172.618 42.003 171.396 42.003ZM171.537 40.828C172.351 40.828 173.213 40.4677 174.122 39.747C175.03 38.995 175.908 38.008 176.754 36.786C177.631 35.5327 178.414 34.1383 179.104 32.603C179.793 31.0363 180.341 29.4383 180.749 27.809C181.156 26.1483 181.36 24.5503 181.36 23.015C181.36 21.8243 181.234 20.994 180.984 20.524C180.733 20.0227 180.294 19.772 179.668 19.772C178.978 19.772 178.195 20.195 177.318 21.041C176.44 21.887 175.547 23.015 174.639 24.425C173.73 25.8037 172.884 27.3077 172.101 28.937C171.317 30.5663 170.691 32.18 170.221 33.778C169.751 35.3447 169.516 36.739 169.516 37.961C169.516 39.8723 170.189 40.828 171.537 40.828Z" fill="black"/>
<path d="M193.423 13.145C192.828 13.145 192.326 12.9413 191.919 12.534C191.543 12.0953 191.355 11.5783 191.355 10.983C191.355 10.137 191.606 9.46333 192.107 8.962C192.64 8.46067 193.235 8.21 193.893 8.21C194.52 8.21 195.037 8.41367 195.444 8.821C195.883 9.197 196.102 9.69833 196.102 10.325C196.102 11.2023 195.836 11.8917 195.303 12.393C194.77 12.8943 194.144 13.145 193.423 13.145ZM189.569 42.05C188.535 42.05 187.799 41.674 187.36 40.922C186.921 40.1387 186.906 38.8697 187.313 37.115L190.791 22.216C190.948 21.5267 190.963 20.994 190.838 20.618C190.744 20.2107 190.462 20.007 189.992 20.007C189.428 20.007 188.801 20.43 188.112 21.276C187.454 22.0907 186.702 23.6573 185.856 25.976C185.731 26.3833 185.511 26.587 185.198 26.587C184.728 26.587 184.603 26.305 184.822 25.741C185.511 23.579 186.232 21.887 186.984 20.665C187.767 19.443 188.551 18.5813 189.334 18.08C190.117 17.5787 190.838 17.328 191.496 17.328C192.593 17.328 193.36 17.7197 193.799 18.503C194.238 19.255 194.253 20.5083 193.846 22.263L190.368 37.162C190.211 37.8513 190.18 38.3997 190.274 38.807C190.399 39.183 190.697 39.371 191.167 39.371C191.731 39.371 192.342 38.9637 193 38.149C193.689 37.303 194.457 35.7207 195.303 33.402C195.428 32.9947 195.648 32.791 195.961 32.791C196.431 32.791 196.556 33.073 196.337 33.637C195.679 35.7677 194.943 37.4597 194.128 38.713C193.345 39.935 192.561 40.7967 191.778 41.298C190.995 41.7993 190.258 42.05 189.569 42.05Z" fill="black"/>
<path d="M202.639 42.003C200.916 42.003 199.49 41.298 198.362 39.888C197.234 38.4467 196.67 36.6137 196.67 34.389C196.67 32.2897 196.999 30.2373 197.657 28.232C198.346 26.1953 199.255 24.3623 200.383 22.733C201.542 21.0723 202.811 19.7563 204.19 18.785C205.6 17.8137 207.01 17.328 208.42 17.328C209.924 17.328 211.193 17.7353 212.227 18.55C212.384 18.6753 212.478 18.785 212.509 18.879C212.54 18.9417 212.525 19.0983 212.462 19.349L211.193 25.506C211.099 25.9447 210.895 26.164 210.582 26.164C210.237 26.164 210.034 25.929 209.971 25.459L209.736 22.122C209.642 20.6807 209.423 19.7407 209.078 19.302C208.765 18.8633 208.295 18.644 207.668 18.644C206.791 18.644 205.898 19.0827 204.989 19.96C204.08 20.806 203.234 21.9653 202.451 23.438C201.699 24.8793 201.088 26.493 200.618 28.279C200.179 30.0337 199.96 31.8197 199.96 33.637C199.96 37.585 201.245 39.559 203.814 39.559C205.036 39.559 206.133 38.995 207.104 37.867C208.107 36.739 209.031 34.9843 209.877 32.603C209.971 32.2897 210.19 32.133 210.535 32.133C210.723 32.133 210.833 32.2113 210.864 32.368C210.895 32.4933 210.864 32.7597 210.77 33.167C210.457 34.8903 209.893 36.41 209.078 37.726C208.263 39.042 207.292 40.0917 206.164 40.875C205.067 41.627 203.892 42.003 202.639 42.003Z" fill="black"/>
<path d="M225.979 42.003C224.381 42.003 223.08 40.7027 222.078 38.102L219.493 31.287C219.179 30.535 218.788 30.159 218.318 30.159C217.848 30.159 217.44 30.5507 217.096 31.334C216.782 32.0233 216.438 32.9633 216.062 34.154C215.717 35.3133 215.388 36.5823 215.075 37.961L214.37 41.063C214.276 41.4077 214.056 41.58 213.712 41.58H211.879C211.44 41.58 211.268 41.3763 211.362 40.969L218.224 11.5C218.349 10.9673 218.349 10.5913 218.224 10.372C218.098 10.1213 217.816 9.98033 217.378 9.949L215.968 9.808C215.498 9.74533 215.294 9.54167 215.357 9.197C215.419 8.915 215.639 8.74267 216.015 8.68C217.362 8.46067 218.443 8.21 219.258 7.928C220.072 7.646 220.699 7.317 221.138 6.941C221.388 6.753 221.608 6.659 221.796 6.659C222.203 6.659 222.36 6.894 222.266 7.364L217.895 25.976C217.863 26.1953 217.91 26.3207 218.036 26.352C218.161 26.3833 218.271 26.305 218.365 26.117L219.916 23.344C222.172 19.3333 224.71 17.328 227.53 17.328C228.595 17.328 229.441 17.61 230.068 18.174C230.694 18.738 231.008 19.5057 231.008 20.477C231.008 22.0123 230.256 23.5477 228.752 25.083C227.279 26.6183 225.336 27.8717 222.924 28.843C222.172 29.125 221.952 29.6263 222.266 30.347L224.992 37.303C225.305 38.0863 225.618 38.6503 225.932 38.995C226.245 39.3083 226.637 39.465 227.107 39.465C227.827 39.465 228.376 39.0263 228.752 38.149C229.128 37.2403 229.457 35.6737 229.739 33.449C229.801 33.0417 229.989 32.838 230.303 32.838C230.647 32.838 230.804 33.1513 230.773 33.778C230.616 36.41 230.115 38.4467 229.269 39.888C228.454 41.298 227.357 42.003 225.979 42.003ZM218.788 28.044C218.662 28.326 218.647 28.5453 218.741 28.702C218.866 28.8273 219.07 28.8587 219.352 28.796C221.952 28.138 224.052 27.057 225.65 25.553C227.248 24.049 228.047 22.3883 228.047 20.571C228.047 19.3803 227.592 18.785 226.684 18.785C225.618 18.785 224.381 19.6153 222.971 21.276C221.561 22.9053 220.166 25.1613 218.788 28.044Z" fill="black"/>
<path d="M240.232 13.145C239.637 13.145 239.135 12.9413 238.728 12.534C238.352 12.0953 238.164 11.5783 238.164 10.983C238.164 10.137 238.415 9.46333 238.916 8.962C239.449 8.46067 240.044 8.21 240.702 8.21C241.329 8.21 241.846 8.41367 242.253 8.821C242.692 9.197 242.911 9.69833 242.911 10.325C242.911 11.2023 242.645 11.8917 242.112 12.393C241.579 12.8943 240.953 13.145 240.232 13.145ZM236.378 42.05C235.344 42.05 234.608 41.674 234.169 40.922C233.73 40.1387 233.715 38.8697 234.122 37.115L237.6 22.216C237.757 21.5267 237.772 20.994 237.647 20.618C237.553 20.2107 237.271 20.007 236.801 20.007C236.237 20.007 235.61 20.43 234.921 21.276C234.263 22.0907 233.511 23.6573 232.665 25.976C232.54 26.3833 232.32 26.587 232.007 26.587C231.537 26.587 231.412 26.305 231.631 25.741C232.32 23.579 233.041 21.887 233.793 20.665C234.576 19.443 235.36 18.5813 236.143 18.08C236.926 17.5787 237.647 17.328 238.305 17.328C239.402 17.328 240.169 17.7197 240.608 18.503C241.047 19.255 241.062 20.5083 240.655 22.263L237.177 37.162C237.02 37.8513 236.989 38.3997 237.083 38.807C237.208 39.183 237.506 39.371 237.976 39.371C238.54 39.371 239.151 38.9637 239.809 38.149C240.498 37.303 241.266 35.7207 242.112 33.402C242.237 32.9947 242.457 32.791 242.77 32.791C243.24 32.791 243.365 33.073 243.146 33.637C242.488 35.7677 241.752 37.4597 240.937 38.713C240.154 39.935 239.37 40.7967 238.587 41.298C237.804 41.7993 237.067 42.05 236.378 42.05Z" fill="black"/>
<path d="M16.762 41.58C16.6053 40.9847 16.4957 40.3267 16.433 39.606C16.4017 38.8853 16.386 38.008 16.386 36.974H16.151V25.553C16.151 24.0177 15.7593 22.874 14.976 22.122C14.224 21.3387 13.0177 20.947 11.357 20.947C9.759 20.947 8.47433 21.2603 7.503 21.887C6.563 22.5137 6.01467 23.4067 5.858 24.566H1.205C1.42433 22.31 2.44267 20.5083 4.26 19.161C6.07733 17.8137 8.50567 17.14 11.545 17.14C14.6783 17.14 17.0283 17.8763 18.595 19.349C20.1617 20.7903 20.945 22.921 20.945 25.741V36.974C20.945 37.6947 20.992 38.431 21.086 39.183C21.18 39.935 21.321 40.734 21.509 41.58H16.762ZM8.49 42.05C6.046 42.05 4.10333 41.4547 2.662 40.264C1.22067 39.042 0.5 37.397 0.5 35.329C0.5 33.1983 1.252 31.522 2.756 30.3C4.29133 29.0467 6.48467 28.2007 9.336 27.762L17.232 26.493V29.924L10.088 31.052C8.49 31.3027 7.28367 31.7257 6.469 32.321C5.68567 32.9163 5.294 33.778 5.294 34.906C5.294 36.0027 5.65433 36.833 6.375 37.397C7.127 37.9297 8.208 38.196 9.618 38.196C11.498 38.196 13.049 37.7417 14.271 36.833C15.5243 35.9243 16.151 34.7807 16.151 33.402L16.762 36.88C16.198 38.5407 15.1953 39.8253 13.754 40.734C12.3127 41.6113 10.558 42.05 8.49 42.05Z" stroke="black" mask="url(#path-1-outside-1_1_9)"/>
<path d="M24.7472 41.58V17.61H29.4002V23.25H29.6352V41.58H24.7472ZM41.7612 41.58V26.164C41.7612 24.5033 41.3382 23.2657 40.4922 22.451C39.6776 21.6363 38.4556 21.229 36.8262 21.229C35.4162 21.229 34.1629 21.5423 33.0662 22.169C32.0009 22.7957 31.1549 23.6573 30.5282 24.754C29.9329 25.8507 29.6352 27.151 29.6352 28.655L29.0242 22.921C29.8076 21.135 31.0139 19.725 32.6432 18.691C34.2726 17.657 36.1682 17.14 38.3302 17.14C40.8996 17.14 42.9206 17.8607 44.3932 19.302C45.8659 20.7433 46.6022 22.6547 46.6022 25.036V41.58H41.7612Z" stroke="black" mask="url(#path-1-outside-1_1_9)"/>
<path d="M59.8489 42.05C57.0602 42.05 55.0079 41.4077 53.6919 40.123C52.4072 38.807 51.7649 36.88 51.7649 34.342V12.111L56.6059 10.278V34.389C56.6059 35.6423 56.9349 36.5667 57.5929 37.162C58.2509 37.7573 59.3162 38.055 60.7889 38.055C61.3529 38.055 61.8542 38.008 62.2929 37.914C62.7316 37.82 63.1075 37.7103 63.4209 37.585V41.533C63.0762 41.6897 62.5905 41.815 61.9639 41.909C61.3372 42.003 60.6322 42.05 59.8489 42.05ZM46.9709 21.511V17.61H63.4209V21.511H46.9709Z" stroke="black" mask="url(#path-1-outside-1_1_9)"/>
<path d="M75.0266 42.05C72.5826 42.05 70.4362 41.5173 68.5876 40.452C66.7389 39.3553 65.2976 37.867 64.2636 35.987C63.2296 34.0757 62.7126 31.9137 62.7126 29.501C62.7126 27.057 63.2296 24.9107 64.2636 23.062C65.3289 21.2133 66.7702 19.772 68.5876 18.738C70.4362 17.6727 72.5826 17.14 75.0266 17.14C77.5019 17.14 79.6639 17.6727 81.5126 18.738C83.3612 19.772 84.7869 21.2133 85.7896 23.062C86.8236 24.9107 87.3406 27.057 87.3406 29.501C87.3406 31.9137 86.8236 34.0757 85.7896 35.987C84.7869 37.867 83.3612 39.3553 81.5126 40.452C79.6639 41.5173 77.5019 42.05 75.0266 42.05ZM75.0266 38.055C76.4992 38.055 77.7682 37.6947 78.8336 36.974C79.9302 36.2533 80.7919 35.2507 81.4186 33.966C82.0452 32.6813 82.3586 31.1773 82.3586 29.454C82.3586 26.8847 81.6692 24.8637 80.2906 23.391C78.9432 21.887 77.1886 21.135 75.0266 21.135C72.8959 21.135 71.1412 21.887 69.7626 23.391C68.4152 24.895 67.7416 26.916 67.7416 29.454C67.7416 31.1773 68.0392 32.6813 68.6346 33.966C69.2612 35.2507 70.1229 36.2533 71.2196 36.974C72.3476 37.6947 73.6166 38.055 75.0266 38.055Z" stroke="black" mask="url(#path-1-outside-1_1_9)"/>
<path d="M89.5411 41.58V17.61H94.1941V23.25H94.4291V41.58H89.5411ZM106.555 41.58V26.164C106.555 24.5033 106.132 23.2657 105.286 22.451C104.471 21.6363 103.249 21.229 101.62 21.229C100.21 21.229 98.9568 21.5423 97.8601 22.169C96.7948 22.7957 95.9488 23.6573 95.3221 24.754C94.7268 25.8507 94.4291 27.151 94.4291 28.655L93.8181 22.921C94.6015 21.135 95.8078 19.725 97.4371 18.691C99.0665 17.657 100.962 17.14 103.124 17.14C105.693 17.14 107.714 17.8607 109.187 19.302C110.66 20.7433 111.396 22.6547 111.396 25.036V41.58H106.555Z" stroke="black" mask="url(#path-1-outside-1_1_9)"/>
<path d="M115.132 41.58V17.61H120.02V41.58H115.132ZM114.897 12.91V7.411H120.302V12.91H114.897Z" stroke="black" mask="url(#path-1-outside-1_1_9)"/>
<path d="M250.105 10.58V2.152H246.815V0.5H255.551V2.152H252.261V10.58H250.105Z" stroke="black" mask="url(#path-1-outside-1_1_9)"/>
<path d="M255.745 10.58V0.5H259.105L261.905 10.216H260.687L263.487 0.5H266.861V10.58H264.733V1.102H265.097L262.367 10.58H260.141L257.439 1.186H257.789V10.58H255.745Z" stroke="black" mask="url(#path-1-outside-1_1_9)"/>
<path d="M127.479 42.003C127.072 42.003 126.868 41.768 126.868 41.298C126.868 40.7027 127.119 40.123 127.62 39.559C128.153 38.9637 128.826 38.431 129.641 37.961L141.156 22.733C141.313 22.4823 141.344 22.3257 141.25 22.263C141.187 22.169 141.046 22.169 140.827 22.263C140.451 22.4197 140.012 22.498 139.511 22.498C138.696 22.498 137.913 22.3413 137.161 22.028C136.44 21.6833 135.767 21.3543 135.14 21.041C134.513 20.7277 133.902 20.571 133.307 20.571C132.398 20.571 131.725 21.0097 131.286 21.887C130.847 22.733 130.628 24.096 130.628 25.976C130.628 26.3833 130.44 26.587 130.064 26.587C129.688 26.587 129.5 26.305 129.5 25.741C129.5 23.579 129.751 21.887 130.252 20.665C130.785 19.443 131.443 18.5813 132.226 18.08C133.009 17.5787 133.808 17.328 134.623 17.328C135.532 17.328 136.284 17.5003 136.879 17.845C137.474 18.1897 138.007 18.597 138.477 19.067C138.947 19.5057 139.448 19.8973 139.981 20.242C140.514 20.5867 141.203 20.759 142.049 20.759C142.425 20.759 142.676 20.571 142.801 20.195C143.146 19.4743 143.584 18.8163 144.117 18.221C144.65 17.6257 145.151 17.328 145.621 17.328C146.122 17.328 146.373 17.5787 146.373 18.08C146.373 18.5187 146.201 18.9103 145.856 19.255C145.543 19.5997 145.088 20.0227 144.493 20.524C143.929 21.0253 143.287 21.7617 142.566 22.733L131.897 36.927C131.772 37.0837 131.756 37.2247 131.85 37.35C131.944 37.444 132.101 37.444 132.32 37.35C132.696 37.1933 133.119 37.115 133.589 37.115C134.278 37.115 134.999 37.256 135.751 37.538C136.503 37.7887 137.239 38.055 137.96 38.337C138.712 38.619 139.37 38.76 139.934 38.76C140.843 38.76 141.516 38.3527 141.955 37.538C142.394 36.692 142.613 35.329 142.613 33.449C142.613 33.0417 142.801 32.838 143.177 32.838C143.553 32.838 143.741 33.12 143.741 33.684C143.741 35.7833 143.475 37.444 142.942 38.666C142.441 39.888 141.798 40.7497 141.015 41.251C140.232 41.7523 139.433 42.003 138.618 42.003C137.772 42.003 137.036 41.8463 136.409 41.533C135.782 41.1883 135.203 40.8123 134.67 40.405C134.169 39.9977 133.683 39.6373 133.213 39.324C132.743 39.0107 132.226 38.854 131.662 38.854C130.941 38.854 130.44 39.1047 130.158 39.606C129.845 40.264 129.422 40.828 128.889 41.298C128.388 41.768 127.918 42.003 127.479 42.003ZM140.874 13.145C140.279 13.145 139.777 12.9413 139.37 12.534C138.994 12.0953 138.806 11.5783 138.806 10.983C138.806 10.137 139.057 9.46333 139.558 8.962C140.091 8.46067 140.686 8.21 141.344 8.21C141.971 8.21 142.488 8.41367 142.895 8.821C143.334 9.197 143.553 9.69833 143.553 10.325C143.553 11.2023 143.287 11.8917 142.754 12.393C142.221 12.8943 141.595 13.145 140.874 13.145Z" stroke="black" mask="url(#path-1-outside-1_1_9)"/>
<path d="M148.336 42.003C147.208 42.003 146.331 41.5173 145.704 40.546C145.077 39.5747 144.764 38.149 144.764 36.269C144.764 34.483 145.015 32.697 145.516 30.911C146.017 29.0937 146.707 27.3703 147.584 25.741C148.461 24.1117 149.448 22.6703 150.545 21.417C151.673 20.1637 152.848 19.1767 154.07 18.456C155.323 17.704 156.561 17.328 157.783 17.328C158.378 17.328 158.942 17.4533 159.475 17.704C160.008 17.9233 160.446 18.2837 160.791 18.785C160.979 19.067 161.167 19.208 161.355 19.208C161.543 19.208 161.731 19.067 161.919 18.785C162.264 18.2837 162.546 17.9703 162.765 17.845C162.984 17.6883 163.188 17.61 163.376 17.61C163.783 17.61 163.94 17.8293 163.846 18.268L159.663 36.269C159.193 38.3057 159.506 39.324 160.603 39.324C161.324 39.324 161.966 38.8383 162.53 37.867C163.125 36.8957 163.721 35.3917 164.316 33.355C164.41 33.0103 164.614 32.838 164.927 32.838C165.146 32.838 165.287 32.932 165.35 33.12C165.413 33.308 165.413 33.5273 165.35 33.778C164.755 36.7233 163.956 38.8383 162.953 40.123C161.95 41.3763 160.744 42.003 159.334 42.003C158.112 42.003 157.235 41.486 156.702 40.452C156.201 39.418 156.154 38.008 156.561 36.222L157.172 33.637C157.235 33.4177 157.188 33.2923 157.031 33.261C156.906 33.2297 156.796 33.308 156.702 33.496C154.979 36.6607 153.443 38.8697 152.096 40.123C150.78 41.3763 149.527 42.003 148.336 42.003ZM149.511 39.606C150.263 39.606 151.093 39.1517 152.002 38.243C152.911 37.3343 153.804 36.1593 154.681 34.718C155.59 33.2767 156.42 31.7257 157.172 30.065C157.924 28.4043 158.519 26.8063 158.958 25.271C159.428 23.7357 159.663 22.4353 159.663 21.37C159.663 19.4587 158.989 18.503 157.642 18.503C156.827 18.503 155.966 18.879 155.057 19.631C154.148 20.3517 153.271 21.3387 152.425 22.592C151.61 23.8453 150.858 25.271 150.169 26.869C149.511 28.4357 148.978 30.0807 148.571 31.804C148.164 33.496 147.96 35.1567 147.96 36.786C147.96 37.8827 148.085 38.6347 148.336 39.042C148.618 39.418 149.01 39.606 149.511 39.606Z" stroke="black" mask="url(#path-1-outside-1_1_9)"/>
<path d="M171.396 42.003C170.33 42.003 169.375 41.721 168.529 41.157C167.714 40.5617 167.134 39.6843 166.79 38.525C166.476 37.3343 166.523 35.8617 166.931 34.107L172.195 11.5C172.351 10.936 172.351 10.5443 172.195 10.325C172.069 10.1057 171.787 9.98033 171.349 9.949L169.939 9.808C169.469 9.77666 169.265 9.573 169.328 9.197C169.39 8.915 169.61 8.74267 169.986 8.68C171.114 8.492 172.116 8.27267 172.994 8.022C173.871 7.74 174.576 7.37966 175.109 6.941C175.359 6.753 175.594 6.659 175.814 6.659C176.19 6.659 176.331 6.894 176.237 7.364L171.96 25.835C171.928 26.0543 171.975 26.1797 172.101 26.211C172.226 26.2423 172.336 26.164 172.43 25.976C174.153 22.686 175.688 20.43 177.036 19.208C178.414 17.9547 179.699 17.328 180.89 17.328C182.049 17.328 182.958 17.8137 183.616 18.785C184.305 19.7563 184.65 21.182 184.65 23.062C184.65 24.848 184.383 26.6497 183.851 28.467C183.349 30.253 182.644 31.9607 181.736 33.59C180.858 35.2193 179.84 36.6607 178.681 37.914C177.553 39.1673 176.362 40.17 175.109 40.922C173.855 41.6427 172.618 42.003 171.396 42.003ZM171.537 40.828C172.351 40.828 173.213 40.4677 174.122 39.747C175.03 38.995 175.908 38.008 176.754 36.786C177.631 35.5327 178.414 34.1383 179.104 32.603C179.793 31.0363 180.341 29.4383 180.749 27.809C181.156 26.1483 181.36 24.5503 181.36 23.015C181.36 21.8243 181.234 20.994 180.984 20.524C180.733 20.0227 180.294 19.772 179.668 19.772C178.978 19.772 178.195 20.195 177.318 21.041C176.44 21.887 175.547 23.015 174.639 24.425C173.73 25.8037 172.884 27.3077 172.101 28.937C171.317 30.5663 170.691 32.18 170.221 33.778C169.751 35.3447 169.516 36.739 169.516 37.961C169.516 39.8723 170.189 40.828 171.537 40.828Z" stroke="black" mask="url(#path-1-outside-1_1_9)"/>
<path d="M193.423 13.145C192.828 13.145 192.326 12.9413 191.919 12.534C191.543 12.0953 191.355 11.5783 191.355 10.983C191.355 10.137 191.606 9.46333 192.107 8.962C192.64 8.46067 193.235 8.21 193.893 8.21C194.52 8.21 195.037 8.41367 195.444 8.821C195.883 9.197 196.102 9.69833 196.102 10.325C196.102 11.2023 195.836 11.8917 195.303 12.393C194.77 12.8943 194.144 13.145 193.423 13.145ZM189.569 42.05C188.535 42.05 187.799 41.674 187.36 40.922C186.921 40.1387 186.906 38.8697 187.313 37.115L190.791 22.216C190.948 21.5267 190.963 20.994 190.838 20.618C190.744 20.2107 190.462 20.007 189.992 20.007C189.428 20.007 188.801 20.43 188.112 21.276C187.454 22.0907 186.702 23.6573 185.856 25.976C185.731 26.3833 185.511 26.587 185.198 26.587C184.728 26.587 184.603 26.305 184.822 25.741C185.511 23.579 186.232 21.887 186.984 20.665C187.767 19.443 188.551 18.5813 189.334 18.08C190.117 17.5787 190.838 17.328 191.496 17.328C192.593 17.328 193.36 17.7197 193.799 18.503C194.238 19.255 194.253 20.5083 193.846 22.263L190.368 37.162C190.211 37.8513 190.18 38.3997 190.274 38.807C190.399 39.183 190.697 39.371 191.167 39.371C191.731 39.371 192.342 38.9637 193 38.149C193.689 37.303 194.457 35.7207 195.303 33.402C195.428 32.9947 195.648 32.791 195.961 32.791C196.431 32.791 196.556 33.073 196.337 33.637C195.679 35.7677 194.943 37.4597 194.128 38.713C193.345 39.935 192.561 40.7967 191.778 41.298C190.995 41.7993 190.258 42.05 189.569 42.05Z" stroke="black" mask="url(#path-1-outside-1_1_9)"/>
<path d="M202.639 42.003C200.916 42.003 199.49 41.298 198.362 39.888C197.234 38.4467 196.67 36.6137 196.67 34.389C196.67 32.2897 196.999 30.2373 197.657 28.232C198.346 26.1953 199.255 24.3623 200.383 22.733C201.542 21.0723 202.811 19.7563 204.19 18.785C205.6 17.8137 207.01 17.328 208.42 17.328C209.924 17.328 211.193 17.7353 212.227 18.55C212.384 18.6753 212.478 18.785 212.509 18.879C212.54 18.9417 212.525 19.0983 212.462 19.349L211.193 25.506C211.099 25.9447 210.895 26.164 210.582 26.164C210.237 26.164 210.034 25.929 209.971 25.459L209.736 22.122C209.642 20.6807 209.423 19.7407 209.078 19.302C208.765 18.8633 208.295 18.644 207.668 18.644C206.791 18.644 205.898 19.0827 204.989 19.96C204.08 20.806 203.234 21.9653 202.451 23.438C201.699 24.8793 201.088 26.493 200.618 28.279C200.179 30.0337 199.96 31.8197 199.96 33.637C199.96 37.585 201.245 39.559 203.814 39.559C205.036 39.559 206.133 38.995 207.104 37.867C208.107 36.739 209.031 34.9843 209.877 32.603C209.971 32.2897 210.19 32.133 210.535 32.133C210.723 32.133 210.833 32.2113 210.864 32.368C210.895 32.4933 210.864 32.7597 210.77 33.167C210.457 34.8903 209.893 36.41 209.078 37.726C208.263 39.042 207.292 40.0917 206.164 40.875C205.067 41.627 203.892 42.003 202.639 42.003Z" stroke="black" mask="url(#path-1-outside-1_1_9)"/>
<path d="M225.979 42.003C224.381 42.003 223.08 40.7027 222.078 38.102L219.493 31.287C219.179 30.535 218.788 30.159 218.318 30.159C217.848 30.159 217.44 30.5507 217.096 31.334C216.782 32.0233 216.438 32.9633 216.062 34.154C215.717 35.3133 215.388 36.5823 215.075 37.961L214.37 41.063C214.276 41.4077 214.056 41.58 213.712 41.58H211.879C211.44 41.58 211.268 41.3763 211.362 40.969L218.224 11.5C218.349 10.9673 218.349 10.5913 218.224 10.372C218.098 10.1213 217.816 9.98033 217.378 9.949L215.968 9.808C215.498 9.74533 215.294 9.54167 215.357 9.197C215.419 8.915 215.639 8.74267 216.015 8.68C217.362 8.46067 218.443 8.21 219.258 7.928C220.072 7.646 220.699 7.317 221.138 6.941C221.388 6.753 221.608 6.659 221.796 6.659C222.203 6.659 222.36 6.894 222.266 7.364L217.895 25.976C217.863 26.1953 217.91 26.3207 218.036 26.352C218.161 26.3833 218.271 26.305 218.365 26.117L219.916 23.344C222.172 19.3333 224.71 17.328 227.53 17.328C228.595 17.328 229.441 17.61 230.068 18.174C230.694 18.738 231.008 19.5057 231.008 20.477C231.008 22.0123 230.256 23.5477 228.752 25.083C227.279 26.6183 225.336 27.8717 222.924 28.843C222.172 29.125 221.952 29.6263 222.266 30.347L224.992 37.303C225.305 38.0863 225.618 38.6503 225.932 38.995C226.245 39.3083 226.637 39.465 227.107 39.465C227.827 39.465 228.376 39.0263 228.752 38.149C229.128 37.2403 229.457 35.6737 229.739 33.449C229.801 33.0417 229.989 32.838 230.303 32.838C230.647 32.838 230.804 33.1513 230.773 33.778C230.616 36.41 230.115 38.4467 229.269 39.888C228.454 41.298 227.357 42.003 225.979 42.003ZM218.788 28.044C218.662 28.326 218.647 28.5453 218.741 28.702C218.866 28.8273 219.07 28.8587 219.352 28.796C221.952 28.138 224.052 27.057 225.65 25.553C227.248 24.049 228.047 22.3883 228.047 20.571C228.047 19.3803 227.592 18.785 226.684 18.785C225.618 18.785 224.381 19.6153 222.971 21.276C221.561 22.9053 220.166 25.1613 218.788 28.044Z" stroke="black" mask="url(#path-1-outside-1_1_9)"/>
<path d="M240.232 13.145C239.637 13.145 239.135 12.9413 238.728 12.534C238.352 12.0953 238.164 11.5783 238.164 10.983C238.164 10.137 238.415 9.46333 238.916 8.962C239.449 8.46067 240.044 8.21 240.702 8.21C241.329 8.21 241.846 8.41367 242.253 8.821C242.692 9.197 242.911 9.69833 242.911 10.325C242.911 11.2023 242.645 11.8917 242.112 12.393C241.579 12.8943 240.953 13.145 240.232 13.145ZM236.378 42.05C235.344 42.05 234.608 41.674 234.169 40.922C233.73 40.1387 233.715 38.8697 234.122 37.115L237.6 22.216C237.757 21.5267 237.772 20.994 237.647 20.618C237.553 20.2107 237.271 20.007 236.801 20.007C236.237 20.007 235.61 20.43 234.921 21.276C234.263 22.0907 233.511 23.6573 232.665 25.976C232.54 26.3833 232.32 26.587 232.007 26.587C231.537 26.587 231.412 26.305 231.631 25.741C232.32 23.579 233.041 21.887 233.793 20.665C234.576 19.443 235.36 18.5813 236.143 18.08C236.926 17.5787 237.647 17.328 238.305 17.328C239.402 17.328 240.169 17.7197 240.608 18.503C241.047 19.255 241.062 20.5083 240.655 22.263L237.177 37.162C237.02 37.8513 236.989 38.3997 237.083 38.807C237.208 39.183 237.506 39.371 237.976 39.371C238.54 39.371 239.151 38.9637 239.809 38.149C240.498 37.303 241.266 35.7207 242.112 33.402C242.237 32.9947 242.457 32.791 242.77 32.791C243.24 32.791 243.365 33.073 243.146 33.637C242.488 35.7677 241.752 37.4597 240.937 38.713C240.154 39.935 239.37 40.7967 238.587 41.298C237.804 41.7993 237.067 42.05 236.378 42.05Z" stroke="black" mask="url(#path-1-outside-1_1_9)"/>
</svg>
