<svg width="641" height="155" viewBox="0 0 641 155" fill="none" xmlns="http://www.w3.org/2000/svg">
<path d="M69.8 0V27.8H49V154.4H21.2V27.8H0V0H69.8Z" fill="white"/>
<path d="M115.433 0H143.233V154.4H115.433V91H101.633V154.4H73.8328V0H101.633V63.2H115.433V0Z" fill="white"/>
<path d="M174.866 27.8V63.4H205.066V91.2H174.866V126.8H209.666V154.4H147.066V0H209.666V27.8H174.866Z" fill="white"/>
<path d="M321.167 0V27.8H300.367V154.4H272.567V27.8H251.367V0H321.167Z" fill="white"/>
<path d="M394.6 66.2C394.6 76.2 389.8 85 382.4 90.4L397 154.4H366.4L355.2 96.6H353V154.4H325.2V0H364.2C381 0 394.6 13.6 394.6 30.4V66.2ZM353 27.8V68.8H359.8C363.6 68.8 366.8 65.8 366.8 61.8V34.8C366.8 31 363.6 27.8 359.8 27.8H353Z" fill="white"/>
<path d="M398.833 154.4V0H426.633V154.4H398.833Z" fill="white"/>
<path d="M472.464 154.4H430.864V0H472.464C487.864 0 500.264 12.4 500.264 27.8V56.8C500.264 62.8 498.464 68.6 495.464 73.2C498.464 78 500.264 83.6 500.264 89.8V126.8C500.264 142 487.864 154.4 472.464 154.4ZM458.664 27.8V59.4H465.664C469.464 59.4 472.464 56.2 472.464 52.4V34.8C472.464 31 469.464 27.8 465.664 27.8H458.664ZM472.464 119.6V94C472.464 90.2 469.464 87.2 465.664 87.2H458.664V126.4H465.664C469.464 126.4 472.464 123.4 472.464 119.6Z" fill="white"/>
<path d="M546.097 154.4H504.497V0H546.097C561.497 0 573.897 12.4 573.897 27.8V56.8C573.897 62.8 572.097 68.6 569.097 73.2C572.097 78 573.897 83.6 573.897 89.8V126.8C573.897 142 561.497 154.4 546.097 154.4ZM532.297 27.8V59.4H539.297C543.097 59.4 546.097 56.2 546.097 52.4V34.8C546.097 31 543.097 27.8 539.297 27.8H532.297ZM546.097 119.6V94C546.097 90.2 543.097 87.2 539.297 87.2H532.297V126.4H539.297C543.097 126.4 546.097 123.4 546.097 119.6Z" fill="white"/>
<path d="M605.53 27.8V63.4H635.73V91.2H605.53V126.8H640.33V154.4H577.73V0H640.33V27.8H605.53Z" fill="white"/>
</svg>
