<svg width="4551" height="255" viewBox="0 0 4551 255" fill="none" xmlns="http://www.w3.org/2000/svg">
<mask id="path-1-inside-1_4_72" fill="white">
<path d="M265.024 244.36L232.88 117.096H230.256L198.44 244.36H68.88L0 10.168H111.848L142.68 139.4H145.304L176.464 10.168H286.344L317.832 139.4H320.456L351.616 10.168H463.136L392.288 244.36H265.024Z"/>
<path d="M468.658 244.36V10.168H576.242V244.36H468.658Z"/>
<path d="M920.184 91.184H809.648V244.36H702.064V91.184H591.856V10.168H920.184V91.184Z"/>
<path d="M1281.39 244.36H1157.07L1119.03 184.664H1043.26V244.36H935.674V10.168H1175.11C1211.19 10.168 1236.89 16.9467 1252.19 30.504C1267.72 43.8427 1275.48 64.288 1275.48 91.84C1275.48 111.957 1271.11 127.264 1262.36 137.76C1253.62 148.256 1241.26 155.472 1225.3 159.408V162.688L1281.39 244.36ZM1132.47 122.672C1147.78 122.672 1155.43 116.221 1155.43 103.32C1155.43 90.4187 1147.78 83.968 1132.47 83.968H1043.26V122.672H1132.47Z"/>
<path d="M1497.23 178.432V244.36H1389.32V178.432L1260.09 10.168H1389.65L1443.44 89.544L1496.57 10.168H1626.13L1497.23 178.432Z"/>
<path d="M1968.92 10.168V244.36H1842.64L1734.73 122.344H1732.1V244.36H1630.75V10.168H1758.34L1864.94 130.544H1867.57V10.168H1968.92Z"/>
<path d="M2233.85 217.136H2105.28L2092.16 244.36H1975.06L2096.75 10.168H2243.37L2364.07 244.36H2247.3L2233.85 217.136ZM2203.68 155.8L2170.55 88.888H2168.58L2135.78 155.8H2203.68Z"/>
<path d="M3346.16 173.184H3486.88V244.36H3171.67V175.808L3312.38 81.344H3179.21V10.168H3486.88V78.72L3346.16 173.184Z"/>
<path d="M3612.16 97.088H3791.25V150.88H3612.16V181.384H3803.06V244.36H3504.58V10.168H3800.44V69.536H3612.16V97.088Z"/>
<path d="M4167.08 244.36H4042.77L4004.72 184.664H3928.95V244.36H3821.37V10.168H4060.81C4096.89 10.168 4122.58 16.9467 4137.89 30.504C4153.41 43.8427 4161.18 64.288 4161.18 91.84C4161.18 111.957 4156.8 127.264 4148.06 137.76C4139.31 148.256 4126.96 155.472 4110.99 159.408V162.688L4167.08 244.36ZM4018.17 122.672C4033.48 122.672 4041.13 116.221 4041.13 103.32C4041.13 90.4187 4033.48 83.968 4018.17 83.968H3928.95V122.672H4018.17Z"/>
<path d="M4419.99 217.136H4291.41L4278.29 244.36H4161.19L4282.88 10.168H4429.5L4550.2 244.36H4433.44L4419.99 217.136ZM4389.81 155.8L4356.68 88.888H4354.71L4321.92 155.8H4389.81Z"/>
<path d="M2650.18 243.704C2621.1 250.92 2584.91 254.528 2541.61 254.528C2477.54 254.528 2430.53 246.219 2400.57 229.6C2370.83 212.763 2355.96 186.741 2355.96 151.536C2355.96 130.981 2359.9 111.083 2367.77 91.84C2375.86 72.5973 2387.45 56.6347 2402.54 43.952C2420.25 29.0827 2443.76 18.04 2473.06 10.824C2502.36 3.60801 2538.66 0 2581.96 0C2646.03 0 2692.93 8.41867 2722.67 25.256C2752.41 41.8747 2767.28 67.7867 2767.28 102.992C2767.28 123.328 2763.34 143.227 2755.47 162.688C2747.6 181.931 2736.12 197.893 2721.03 210.576C2703.1 225.445 2679.48 236.488 2650.18 243.704ZM2609.84 95.12C2601.09 89.4347 2587.75 86.592 2569.82 86.592C2546.2 86.592 2528.16 92.2773 2515.7 103.648C2510.89 108.021 2507.17 113.16 2504.55 119.064C2501.92 124.749 2500.61 130.325 2500.61 135.792C2500.61 145.851 2504.99 153.723 2513.73 159.408C2522.48 165.093 2535.82 167.936 2553.75 167.936C2577.36 167.936 2595.4 162.251 2607.87 150.88C2612.68 146.507 2616.4 141.477 2619.02 135.792C2621.64 129.888 2622.96 124.203 2622.96 118.736C2622.96 108.677 2618.58 100.805 2609.84 95.12ZM3036.07 10.168C3073.46 10.168 3102.76 17.2747 3123.97 31.488C3145.18 45.4827 3155.79 67.3493 3155.79 97.088C3155.79 141.477 3145.29 175.589 3124.3 199.424C3111.4 214.075 3094.56 225.227 3073.79 232.88C3053.01 240.533 3027.1 244.36 2996.05 244.36H2755.3L2800.56 10.168H3036.07ZM2915.36 94.136L2902.57 160.392H2964.56C2979.65 160.392 2991.35 156.019 2999.66 147.272C3003.16 143.555 3005.89 139.072 3007.86 133.824C3009.83 128.576 3010.81 123.219 3010.81 117.752C3010.81 109.661 3007.75 103.757 3001.63 100.04C2995.72 96.104 2987.63 94.136 2977.35 94.136H2915.36Z"/>
</mask>
<path d="M265.024 244.36L232.88 117.096H230.256L198.44 244.36H68.88L0 10.168H111.848L142.68 139.4H145.304L176.464 10.168H286.344L317.832 139.4H320.456L351.616 10.168H463.136L392.288 244.36H265.024Z" fill="white"/>
<path d="M468.658 244.36V10.168H576.242V244.36H468.658Z" fill="white"/>
<path d="M920.184 91.184H809.648V244.36H702.064V91.184H591.856V10.168H920.184V91.184Z" fill="white"/>
<path d="M1281.39 244.36H1157.07L1119.03 184.664H1043.26V244.36H935.674V10.168H1175.11C1211.19 10.168 1236.89 16.9467 1252.19 30.504C1267.72 43.8427 1275.48 64.288 1275.48 91.84C1275.48 111.957 1271.11 127.264 1262.36 137.76C1253.62 148.256 1241.26 155.472 1225.3 159.408V162.688L1281.39 244.36ZM1132.47 122.672C1147.78 122.672 1155.43 116.221 1155.43 103.32C1155.43 90.4187 1147.78 83.968 1132.47 83.968H1043.26V122.672H1132.47Z" fill="white"/>
<path d="M1497.23 178.432V244.36H1389.32V178.432L1260.09 10.168H1389.65L1443.44 89.544L1496.57 10.168H1626.13L1497.23 178.432Z" fill="white"/>
<path d="M1968.92 10.168V244.36H1842.64L1734.73 122.344H1732.1V244.36H1630.75V10.168H1758.34L1864.94 130.544H1867.57V10.168H1968.92Z" fill="white"/>
<path d="M2233.85 217.136H2105.28L2092.16 244.36H1975.06L2096.75 10.168H2243.37L2364.07 244.36H2247.3L2233.85 217.136ZM2203.68 155.8L2170.55 88.888H2168.58L2135.78 155.8H2203.68Z" fill="white"/>
<path d="M3346.16 173.184H3486.88V244.36H3171.67V175.808L3312.38 81.344H3179.21V10.168H3486.88V78.72L3346.16 173.184Z" fill="white"/>
<path d="M3612.16 97.088H3791.25V150.88H3612.16V181.384H3803.06V244.36H3504.58V10.168H3800.44V69.536H3612.16V97.088Z" fill="white"/>
<path d="M4167.08 244.36H4042.77L4004.72 184.664H3928.95V244.36H3821.37V10.168H4060.81C4096.89 10.168 4122.58 16.9467 4137.89 30.504C4153.41 43.8427 4161.18 64.288 4161.18 91.84C4161.18 111.957 4156.8 127.264 4148.06 137.76C4139.31 148.256 4126.96 155.472 4110.99 159.408V162.688L4167.08 244.36ZM4018.17 122.672C4033.48 122.672 4041.13 116.221 4041.13 103.32C4041.13 90.4187 4033.48 83.968 4018.17 83.968H3928.95V122.672H4018.17Z" fill="white"/>
<path d="M4419.99 217.136H4291.41L4278.29 244.36H4161.19L4282.88 10.168H4429.5L4550.2 244.36H4433.44L4419.99 217.136ZM4389.81 155.8L4356.68 88.888H4354.71L4321.92 155.8H4389.81Z" fill="white"/>
<path d="M265.024 244.36L232.88 117.096H230.256L198.44 244.36H68.88L0 10.168H111.848L142.68 139.4H145.304L176.464 10.168H286.344L317.832 139.4H320.456L351.616 10.168H463.136L392.288 244.36H265.024Z" stroke="white" stroke-width="14" mask="url(#path-1-inside-1_4_72)"/>
<path d="M468.658 244.36V10.168H576.242V244.36H468.658Z" stroke="white" stroke-width="14" mask="url(#path-1-inside-1_4_72)"/>
<path d="M920.184 91.184H809.648V244.36H702.064V91.184H591.856V10.168H920.184V91.184Z" stroke="white" stroke-width="14" mask="url(#path-1-inside-1_4_72)"/>
<path d="M1281.39 244.36H1157.07L1119.03 184.664H1043.26V244.36H935.674V10.168H1175.11C1211.19 10.168 1236.89 16.9467 1252.19 30.504C1267.72 43.8427 1275.48 64.288 1275.48 91.84C1275.48 111.957 1271.11 127.264 1262.36 137.76C1253.62 148.256 1241.26 155.472 1225.3 159.408V162.688L1281.39 244.36ZM1132.47 122.672C1147.78 122.672 1155.43 116.221 1155.43 103.32C1155.43 90.4187 1147.78 83.968 1132.47 83.968H1043.26V122.672H1132.47Z" stroke="white" stroke-width="14" mask="url(#path-1-inside-1_4_72)"/>
<path d="M1497.23 178.432V244.36H1389.32V178.432L1260.09 10.168H1389.65L1443.44 89.544L1496.57 10.168H1626.13L1497.23 178.432Z" stroke="white" stroke-width="14" mask="url(#path-1-inside-1_4_72)"/>
<path d="M1968.92 10.168V244.36H1842.64L1734.73 122.344H1732.1V244.36H1630.75V10.168H1758.34L1864.94 130.544H1867.57V10.168H1968.92Z" stroke="white" stroke-width="14" mask="url(#path-1-inside-1_4_72)"/>
<path d="M2233.85 217.136H2105.28L2092.16 244.36H1975.06L2096.75 10.168H2243.37L2364.07 244.36H2247.3L2233.85 217.136ZM2203.68 155.8L2170.55 88.888H2168.58L2135.78 155.8H2203.68Z" stroke="white" stroke-width="14" mask="url(#path-1-inside-1_4_72)"/>
<path d="M3346.16 173.184H3486.88V244.36H3171.67V175.808L3312.38 81.344H3179.21V10.168H3486.88V78.72L3346.16 173.184Z" stroke="white" stroke-width="14" mask="url(#path-1-inside-1_4_72)"/>
<path d="M3612.16 97.088H3791.25V150.88H3612.16V181.384H3803.06V244.36H3504.58V10.168H3800.44V69.536H3612.16V97.088Z" stroke="white" stroke-width="14" mask="url(#path-1-inside-1_4_72)"/>
<path d="M4167.08 244.36H4042.77L4004.72 184.664H3928.95V244.36H3821.37V10.168H4060.81C4096.89 10.168 4122.58 16.9467 4137.89 30.504C4153.41 43.8427 4161.18 64.288 4161.18 91.84C4161.18 111.957 4156.8 127.264 4148.06 137.76C4139.31 148.256 4126.96 155.472 4110.99 159.408V162.688L4167.08 244.36ZM4018.17 122.672C4033.48 122.672 4041.13 116.221 4041.13 103.32C4041.13 90.4187 4033.48 83.968 4018.17 83.968H3928.95V122.672H4018.17Z" stroke="white" stroke-width="14" mask="url(#path-1-inside-1_4_72)"/>
<path d="M4419.99 217.136H4291.41L4278.29 244.36H4161.19L4282.88 10.168H4429.5L4550.2 244.36H4433.44L4419.99 217.136ZM4389.81 155.8L4356.68 88.888H4354.71L4321.92 155.8H4389.81Z" stroke="white" stroke-width="14" mask="url(#path-1-inside-1_4_72)"/>
<path d="M2650.18 243.704C2621.1 250.92 2584.91 254.528 2541.61 254.528C2477.54 254.528 2430.53 246.219 2400.57 229.6C2370.83 212.763 2355.96 186.741 2355.96 151.536C2355.96 130.981 2359.9 111.083 2367.77 91.84C2375.86 72.5973 2387.45 56.6347 2402.54 43.952C2420.25 29.0827 2443.76 18.04 2473.06 10.824C2502.36 3.60801 2538.66 0 2581.96 0C2646.03 0 2692.93 8.41867 2722.67 25.256C2752.41 41.8747 2767.28 67.7867 2767.28 102.992C2767.28 123.328 2763.34 143.227 2755.47 162.688C2747.6 181.931 2736.12 197.893 2721.03 210.576C2703.1 225.445 2679.48 236.488 2650.18 243.704ZM2609.84 95.12C2601.09 89.4347 2587.75 86.592 2569.82 86.592C2546.2 86.592 2528.16 92.2773 2515.7 103.648C2510.89 108.021 2507.17 113.16 2504.55 119.064C2501.92 124.749 2500.61 130.325 2500.61 135.792C2500.61 145.851 2504.99 153.723 2513.73 159.408C2522.48 165.093 2535.82 167.936 2553.75 167.936C2577.36 167.936 2595.4 162.251 2607.87 150.88C2612.68 146.507 2616.4 141.477 2619.02 135.792C2621.64 129.888 2622.96 124.203 2622.96 118.736C2622.96 108.677 2618.58 100.805 2609.84 95.12ZM3036.07 10.168C3073.46 10.168 3102.76 17.2747 3123.97 31.488C3145.18 45.4827 3155.79 67.3493 3155.79 97.088C3155.79 141.477 3145.29 175.589 3124.3 199.424C3111.4 214.075 3094.56 225.227 3073.79 232.88C3053.01 240.533 3027.1 244.36 2996.05 244.36H2755.3L2800.56 10.168H3036.07ZM2915.36 94.136L2902.57 160.392H2964.56C2979.65 160.392 2991.35 156.019 2999.66 147.272C3003.16 143.555 3005.89 139.072 3007.86 133.824C3009.83 128.576 3010.81 123.219 3010.81 117.752C3010.81 109.661 3007.75 103.757 3001.63 100.04C2995.72 96.104 2987.63 94.136 2977.35 94.136H2915.36Z" stroke="white" stroke-width="14" mask="url(#path-1-inside-1_4_72)"/>
</svg>
