<svg width="43" height="34" viewBox="0 0 43 34" fill="none" xmlns="http://www.w3.org/2000/svg">
<path d="M16.262 33.44C16.1053 32.8447 15.9957 32.1867 15.933 31.466C15.9017 30.7453 15.886 29.868 15.886 28.834H15.651V17.413C15.651 15.8777 15.2593 14.734 14.476 13.982C13.724 13.1987 12.5177 12.807 10.857 12.807C9.259 12.807 7.97433 13.1203 7.003 13.747C6.063 14.3737 5.51467 15.2667 5.358 16.426H0.705C0.924333 14.17 1.94267 12.3683 3.76 11.021C5.57733 9.67367 8.00567 9 11.045 9C14.1783 9 16.5283 9.73633 18.095 11.209C19.6617 12.6503 20.445 14.781 20.445 17.601V28.834C20.445 29.5547 20.492 30.291 20.586 31.043C20.68 31.795 20.821 32.594 21.009 33.44H16.262ZM7.99 33.91C5.546 33.91 3.60333 33.3147 2.162 32.124C0.720667 30.902 0 29.257 0 27.189C0 25.0583 0.752 23.382 2.256 22.16C3.79133 20.9067 5.98467 20.0607 8.836 19.622L16.732 18.353V21.784L9.588 22.912C7.99 23.1627 6.78367 23.5857 5.969 24.181C5.18567 24.7763 4.794 25.638 4.794 26.766C4.794 27.8627 5.15433 28.693 5.875 29.257C6.627 29.7897 7.708 30.056 9.118 30.056C10.998 30.056 12.549 29.6017 13.771 28.693C15.0243 27.7843 15.651 26.6407 15.651 25.262L16.262 28.74C15.698 30.4007 14.6953 31.6853 13.254 32.594C11.8127 33.4713 10.058 33.91 7.99 33.91Z" fill="white"/>
<path d="M23.611 33.793C23.2037 33.793 23 33.558 23 33.088C23 32.4927 23.2507 31.913 23.752 31.349C24.2847 30.7537 24.9583 30.221 25.773 29.751L37.288 14.523C37.4447 14.2723 37.476 14.1157 37.382 14.053C37.3193 13.959 37.1783 13.959 36.959 14.053C36.583 14.2097 36.1443 14.288 35.643 14.288C34.8283 14.288 34.045 14.1313 33.293 13.818C32.5723 13.4733 31.8987 13.1443 31.272 12.831C30.6453 12.5177 30.0343 12.361 29.439 12.361C28.5303 12.361 27.8567 12.7997 27.418 13.677C26.9793 14.523 26.76 15.886 26.76 17.766C26.76 18.1733 26.572 18.377 26.196 18.377C25.82 18.377 25.632 18.095 25.632 17.531C25.632 15.369 25.8827 13.677 26.384 12.455C26.9167 11.233 27.5747 10.3713 28.358 9.87C29.1413 9.36867 29.9403 9.118 30.755 9.118C31.6637 9.118 32.4157 9.29033 33.011 9.635C33.6063 9.97967 34.139 10.387 34.609 10.857C35.079 11.2957 35.5803 11.6873 36.113 12.032C36.6457 12.3767 37.335 12.549 38.181 12.549C38.557 12.549 38.8077 12.361 38.933 11.985C39.2777 11.2643 39.7163 10.6063 40.249 10.011C40.7817 9.41567 41.283 9.118 41.753 9.118C42.2543 9.118 42.505 9.36867 42.505 9.87C42.505 10.3087 42.3327 10.7003 41.988 11.045C41.6747 11.3897 41.2203 11.8127 40.625 12.314C40.061 12.8153 39.4187 13.5517 38.698 14.523L28.029 28.717C27.9037 28.8737 27.888 29.0147 27.982 29.14C28.076 29.234 28.2327 29.234 28.452 29.14C28.828 28.9833 29.251 28.905 29.721 28.905C30.4103 28.905 31.131 29.046 31.883 29.328C32.635 29.5787 33.3713 29.845 34.092 30.127C34.844 30.409 35.502 30.55 36.066 30.55C36.9747 30.55 37.6483 30.1427 38.087 29.328C38.5257 28.482 38.745 27.119 38.745 25.239C38.745 24.8317 38.933 24.628 39.309 24.628C39.685 24.628 39.873 24.91 39.873 25.474C39.873 27.5733 39.6067 29.234 39.074 30.456C38.5727 31.678 37.9303 32.5397 37.147 33.041C36.3637 33.5423 35.5647 33.793 34.75 33.793C33.904 33.793 33.1677 33.6363 32.541 33.323C31.9143 32.9783 31.3347 32.6023 30.802 32.195C30.3007 31.7877 29.815 31.4273 29.345 31.114C28.875 30.8007 28.358 30.644 27.794 30.644C27.0733 30.644 26.572 30.8947 26.29 31.396C25.9767 32.054 25.5537 32.618 25.021 33.088C24.5197 33.558 24.0497 33.793 23.611 33.793ZM37.006 4.935C36.4107 4.935 35.9093 4.73133 35.502 4.324C35.126 3.88533 34.938 3.36833 34.938 2.773C34.938 1.927 35.1887 1.25333 35.69 0.752002C36.2227 0.250667 36.818 0 37.476 0C38.1027 0 38.6197 0.203667 39.027 0.611001C39.4657 0.987 39.685 1.48833 39.685 2.115C39.685 2.99233 39.4187 3.68167 38.886 4.183C38.3533 4.68433 37.7267 4.935 37.006 4.935Z" fill="white"/>
</svg>
